<mxfile host="app.diagrams.net" agent="Mozilla/5.0 (Windows NT 10.0; Win64; x64; rv:137.0) Gecko/20100101 Firefox/137.0" version="26.2.12">
  <diagram name="Page-1" id="rZMGocs8G9RMfHO7Wnqs">
    <mxGraphModel dx="1428" dy="751" grid="1" gridSize="10" guides="1" tooltips="1" connect="1" arrows="1" fold="1" page="1" pageScale="1" pageWidth="850" pageHeight="1100" math="0" shadow="0">
      <root>
        <mxCell id="0" />
        <mxCell id="1" parent="0" />
        <mxCell id="p3D6ISFvQx7efOroARsC-1" value="Expert" style="shape=umlLifeline;perimeter=lifelinePerimeter;whiteSpace=wrap;html=1;container=1;dropTarget=0;collapsible=0;recursiveResize=0;outlineConnect=0;portConstraint=eastwest;newEdgeStyle={&quot;curved&quot;:0,&quot;rounded&quot;:0};" vertex="1" parent="1">
          <mxGeometry x="90" y="50" width="100" height="570" as="geometry" />
        </mxCell>
        <mxCell id="p3D6ISFvQx7efOroARsC-2" value=":Menu" style="shape=umlLifeline;perimeter=lifelinePerimeter;whiteSpace=wrap;html=1;container=1;dropTarget=0;collapsible=0;recursiveResize=0;outlineConnect=0;portConstraint=eastwest;newEdgeStyle={&quot;curved&quot;:0,&quot;rounded&quot;:0};" vertex="1" parent="1">
          <mxGeometry x="280" y="50" width="100" height="570" as="geometry" />
        </mxCell>
        <mxCell id="p3D6ISFvQx7efOroARsC-6" value="" style="html=1;points=[[0,0,0,0,5],[0,1,0,0,-5],[1,0,0,0,5],[1,1,0,0,-5]];perimeter=orthogonalPerimeter;outlineConnect=0;targetShapes=umlLifeline;portConstraint=eastwest;newEdgeStyle={&quot;curved&quot;:0,&quot;rounded&quot;:0};" vertex="1" parent="p3D6ISFvQx7efOroARsC-2">
          <mxGeometry x="45" y="100" width="10" height="420" as="geometry" />
        </mxCell>
        <mxCell id="p3D6ISFvQx7efOroARsC-3" value=":UserFactory" style="shape=umlLifeline;perimeter=lifelinePerimeter;whiteSpace=wrap;html=1;container=1;dropTarget=0;collapsible=0;recursiveResize=0;outlineConnect=0;portConstraint=eastwest;newEdgeStyle={&quot;curved&quot;:0,&quot;rounded&quot;:0};" vertex="1" parent="1">
          <mxGeometry x="470" y="50" width="100" height="580" as="geometry" />
        </mxCell>
        <mxCell id="p3D6ISFvQx7efOroARsC-11" value="" style="html=1;points=[[0,0,0,0,5],[0,1,0,0,-5],[1,0,0,0,5],[1,1,0,0,-5]];perimeter=orthogonalPerimeter;outlineConnect=0;targetShapes=umlLifeline;portConstraint=eastwest;newEdgeStyle={&quot;curved&quot;:0,&quot;rounded&quot;:0};" vertex="1" parent="p3D6ISFvQx7efOroARsC-3">
          <mxGeometry x="45" y="110" width="10" height="410" as="geometry" />
        </mxCell>
        <mxCell id="p3D6ISFvQx7efOroARsC-5" value="experts_database" style="shape=umlLifeline;perimeter=lifelinePerimeter;whiteSpace=wrap;html=1;container=1;dropTarget=0;collapsible=0;recursiveResize=0;outlineConnect=0;portConstraint=eastwest;newEdgeStyle={&quot;curved&quot;:0,&quot;rounded&quot;:0};" vertex="1" parent="1">
          <mxGeometry x="700" y="50" width="100" height="570" as="geometry" />
        </mxCell>
        <mxCell id="p3D6ISFvQx7efOroARsC-13" value="" style="html=1;points=[[0,0,0,0,5],[0,1,0,0,-5],[1,0,0,0,5],[1,1,0,0,-5]];perimeter=orthogonalPerimeter;outlineConnect=0;targetShapes=umlLifeline;portConstraint=eastwest;newEdgeStyle={&quot;curved&quot;:0,&quot;rounded&quot;:0};" vertex="1" parent="p3D6ISFvQx7efOroARsC-5">
          <mxGeometry x="45" y="110" width="10" height="420" as="geometry" />
        </mxCell>
        <mxCell id="p3D6ISFvQx7efOroARsC-7" value="Select &quot;Login" style="html=1;verticalAlign=bottom;endArrow=block;curved=0;rounded=0;entryX=0;entryY=0;entryDx=0;entryDy=5;" edge="1" target="p3D6ISFvQx7efOroARsC-6" parent="1" source="p3D6ISFvQx7efOroARsC-1">
          <mxGeometry relative="1" as="geometry">
            <mxPoint x="255" y="155" as="sourcePoint" />
          </mxGeometry>
        </mxCell>
        <mxCell id="p3D6ISFvQx7efOroARsC-8" value="asks for credentials" style="html=1;verticalAlign=bottom;endArrow=open;dashed=1;endSize=8;curved=0;rounded=0;exitX=0;exitY=1;exitDx=0;exitDy=-5;" edge="1" parent="1">
          <mxGeometry relative="1" as="geometry">
            <mxPoint x="139.5" y="220" as="targetPoint" />
            <mxPoint x="325" y="220" as="sourcePoint" />
          </mxGeometry>
        </mxCell>
        <mxCell id="p3D6ISFvQx7efOroARsC-9" value="enters information" style="html=1;verticalAlign=bottom;endArrow=block;curved=0;rounded=0;" edge="1" parent="1" target="p3D6ISFvQx7efOroARsC-2">
          <mxGeometry width="80" relative="1" as="geometry">
            <mxPoint x="140" y="280" as="sourcePoint" />
            <mxPoint x="220" y="280" as="targetPoint" />
          </mxGeometry>
        </mxCell>
        <mxCell id="p3D6ISFvQx7efOroARsC-10" value="authenticateUser(email,password,type)" style="html=1;verticalAlign=bottom;endArrow=block;curved=0;rounded=0;" edge="1" parent="1" target="p3D6ISFvQx7efOroARsC-3">
          <mxGeometry width="80" relative="1" as="geometry">
            <mxPoint x="330" y="300" as="sourcePoint" />
            <mxPoint x="410" y="300" as="targetPoint" />
          </mxGeometry>
        </mxCell>
        <mxCell id="p3D6ISFvQx7efOroARsC-12" value="Query user with email, password, and type" style="html=1;verticalAlign=bottom;endArrow=block;curved=0;rounded=0;" edge="1" parent="1" target="p3D6ISFvQx7efOroARsC-5">
          <mxGeometry width="80" relative="1" as="geometry">
            <mxPoint x="520" y="320" as="sourcePoint" />
            <mxPoint x="600" y="320" as="targetPoint" />
          </mxGeometry>
        </mxCell>
        <mxCell id="p3D6ISFvQx7efOroARsC-14" value="frame" style="shape=umlFrame;whiteSpace=wrap;html=1;pointerEvents=0;" vertex="1" parent="1">
          <mxGeometry x="90" y="330" width="750" height="320" as="geometry" />
        </mxCell>
        <mxCell id="p3D6ISFvQx7efOroARsC-15" value="return entry" style="html=1;verticalAlign=bottom;endArrow=open;dashed=1;endSize=8;curved=0;rounded=0;" edge="1" parent="1" target="p3D6ISFvQx7efOroARsC-11">
          <mxGeometry relative="1" as="geometry">
            <mxPoint x="750" y="380" as="sourcePoint" />
            <mxPoint x="670" y="380" as="targetPoint" />
          </mxGeometry>
        </mxCell>
        <mxCell id="p3D6ISFvQx7efOroARsC-16" value="return Expert object" style="html=1;verticalAlign=bottom;endArrow=open;dashed=1;endSize=8;curved=0;rounded=0;" edge="1" parent="1" target="p3D6ISFvQx7efOroARsC-2">
          <mxGeometry relative="1" as="geometry">
            <mxPoint x="510" y="400" as="sourcePoint" />
            <mxPoint x="430" y="400" as="targetPoint" />
          </mxGeometry>
        </mxCell>
        <mxCell id="p3D6ISFvQx7efOroARsC-17" value="&lt;div&gt;inform user of success&lt;/div&gt;&lt;div&gt;and show expert menu&lt;/div&gt;" style="html=1;verticalAlign=bottom;endArrow=open;dashed=1;endSize=8;curved=0;rounded=0;" edge="1" parent="1" target="p3D6ISFvQx7efOroARsC-1">
          <mxGeometry relative="1" as="geometry">
            <mxPoint x="330" y="430" as="sourcePoint" />
            <mxPoint x="250" y="430" as="targetPoint" />
          </mxGeometry>
        </mxCell>
        <mxCell id="p3D6ISFvQx7efOroARsC-18" value="" style="line;strokeWidth=1;fillColor=none;align=left;verticalAlign=middle;spacingTop=-1;spacingLeft=3;spacingRight=3;rotatable=0;labelPosition=right;points=[];portConstraint=eastwest;strokeColor=inherit;" vertex="1" parent="1">
          <mxGeometry x="90" y="460" width="740" height="8" as="geometry" />
        </mxCell>
        <mxCell id="p3D6ISFvQx7efOroARsC-19" value="Correct information entered" style="text;html=1;align=center;verticalAlign=middle;whiteSpace=wrap;rounded=0;" vertex="1" parent="1">
          <mxGeometry x="130" y="330" width="200" height="30" as="geometry" />
        </mxCell>
        <mxCell id="p3D6ISFvQx7efOroARsC-20" value="Incorrect Information / User is not in database" style="text;html=1;align=center;verticalAlign=middle;whiteSpace=wrap;rounded=0;" vertex="1" parent="1">
          <mxGeometry x="130" y="468" width="280" height="30" as="geometry" />
        </mxCell>
        <mxCell id="p3D6ISFvQx7efOroARsC-21" value="return null" style="html=1;verticalAlign=bottom;endArrow=open;dashed=1;endSize=8;curved=0;rounded=0;" edge="1" parent="1" target="p3D6ISFvQx7efOroARsC-3">
          <mxGeometry relative="1" as="geometry">
            <mxPoint x="750" y="490" as="sourcePoint" />
            <mxPoint x="670" y="490" as="targetPoint" />
          </mxGeometry>
        </mxCell>
        <mxCell id="p3D6ISFvQx7efOroARsC-22" value="return null" style="html=1;verticalAlign=bottom;endArrow=open;dashed=1;endSize=8;curved=0;rounded=0;" edge="1" parent="1" target="p3D6ISFvQx7efOroARsC-2">
          <mxGeometry relative="1" as="geometry">
            <mxPoint x="510" y="520" as="sourcePoint" />
            <mxPoint x="430" y="520" as="targetPoint" />
          </mxGeometry>
        </mxCell>
        <mxCell id="p3D6ISFvQx7efOroARsC-23" value="inform user of failure to log in" style="html=1;verticalAlign=bottom;endArrow=open;dashed=1;endSize=8;curved=0;rounded=0;" edge="1" parent="1" target="p3D6ISFvQx7efOroARsC-1">
          <mxGeometry relative="1" as="geometry">
            <mxPoint x="330" y="550" as="sourcePoint" />
            <mxPoint x="250" y="550" as="targetPoint" />
          </mxGeometry>
        </mxCell>
      </root>
    </mxGraphModel>
  </diagram>
</mxfile>
